<?xml version="1.0" standalone="no"?><!DOCTYPE svg PUBLIC "-//W3C//DTD SVG 1.1//EN" "http://www.w3.org/Graphics/SVG/1.1/DTD/svg11.dtd"><svg width="605" height="250" version="1.1" xmlns="http://www.w3.org/2000/svg" xmlns:xlink="http://www.w3.org/1999/xlink"><defs class="svg-crowbar"><style type="text/css"><![CDATA[
html { min-width: 1040px; }
.mepuka-com body { background-color: rgb(126, 149, 180); font-family: Lora, sans-serif; margin: 1em auto 4em; position: relative; width: 960px; }]]></style></defs><g transform="translate(0,0)"><path class="ice 1912" d="M134.48396939891973,113.6661624822973L143.79555968323257,124.26316769571167L143.0443432062748,131.69744668055864L136.2135143110354,132.24274884770603L129.34774511452997,124.04504724422986L129.714618277736,117.61049913635361L134.48396939891973,113.6661624822973M114.74269919021754,111.73943719816998L119.31987865452538,116.10183536070508L120.665080252802,124.49946486458794L107.0907732154883,128.4074584762875L93.60381693131058,125.153826326321L92.46825714051374,116.99249222151047L109.27454204388778,110.81242818510873L114.74269919021754,111.73943719816998M57.94723950116895,114.04787231560658L60.51535164337838,113.4480425934853L62.157545802299865,112.55738650093554L62.873821978020715,112.59373980704368L64.3937250826275,112.83003630466919L64.98771020394634,112.97544954072873L64.97024005331332,102.65112256129214L73.79266612001811,104.81413962348051L81.58435329978238,115.77465533785107L57.230963325477205,120.60965166114147L34.88664067327045,130.0433638835657L32.860103200539015,123.0453286563461L57.94723950116895,114.04787231560658M55.9032318777754,99.68833633039503L47.70973123362637,97.28902634491897L32.755282296740916,108.28587526977572L24.125027886911994,105.23220187596962L28.38774463997106,100.28816404540339L37.384872212976916,99.08850870283823L49.19469403693802,93.27200290961264L63.65997875627363,90.58187175984312L65.86121773530613,98.85221299478508L55.9032318777754,99.68833633039503M168.34112131447182,120.22794121819607L162.87296416814206,113.21174606032946L149.70047059521312,102.56023951634415L145.12329113090527,95.65313397499449L140.24911910592346,81.7662515900247L136.4231561185734,78.91253941137802L129.29533466263092,81.25730914585074L117.64274419433787,78.02189079205527L111.65048252916313,83.03860797540256L93.98816024509142,84.63814227448529L89.72544349206146,95.3259555790246L98.63522031193133,105.92291351658969L91.96162277233088,113.19356940445141L85.48019688963541,99.9246320864786L73.74025566814817,90.40010620497924L66.280501350353,87.0737979682417L55.763470672798576,90.49098898140437L34.29265555195161,94.34442054718602L49.31698509134003,88.00080163303937L40.564439627109095,83.40213844341451L39.97045450581936,77.93100829067953L26.151565359701635,75.15000471789608L7.039220573526109,89.50945510225029L3.108436682377942,88.01897817760255L5.379556263942504,79.89407076582756L19.14603495816118,65.17112498268762L26.763020631624386,60.899662891522894L43.77894734250731,62.53554146797251L40.68673068151111,57.82784820499728L12.210385159181897,51.28434524806107L9.642273016972467,45.64967045101912L21.22498288282077,45.031674327878136L39.690932095749304,50.52093724493352L46.59164159349166,49.030474407256406L45.61331315836287,42.23251657402943L32.982394254911924,28.745692131773467L35.81255865652929,24.110742397471768L49.15975373570109,30.01803218234454L64.44613553452655,32.47183195578691L70.07152403646614,30.290676529766642L82.58015188554418,35.38004097886369L89.28868972638156,33.689644235408196L96.22433952538995,39.21524475381375L100.99369064657367,37.10679105360941L111.9474750898662,47.049250247981035L120.2108563365473,49.63029475290023L143.5160372731916,61.1723092759039L149.21130637766328,59.391019890008465L154.1902993064141,68.53376846272295L163.5892403438629,69.5152973466138L173.25023364069057,82.83866623173162L168.1140093563008,86.51032525431219L177.23342798370868,101.41511332214213L176.63944286238984,112.30291336703704L168.34112131447182,120.22794121819607M56.07793338407646,104.10525155345022L55.169485551450634,109.54006321352244L48.98505222945823,105.26855511730719L56.07793338407646,104.10525155345022M74.49147214516415,103.77807248538193L79.03371130817686,97.30720293043305L83.13919670556788,110.8669581212962L74.49147214516415,103.77807248538193M97.48219037053059,130.55231236548025L96.87073509857873,141.40383609374658L85.95189095658134,141.64013424979748L83.76812212818186,135.65997741195133L91.82186156729585,136.89599695530887L87.76878662180388,131.49750257076448L97.48219037053059,130.55231236548025M70.6829793083889,151.34654720159415L75.3125692246249,144.29394524545387L85.61995809467044,142.71256451379486L94.14539160073036,144.31212203899668L99.45631739142118,139.8042797032249L108.24380315688904,141.11300761273742L116.71682621107902,148.09289685277872L128.85858089695103,153.96401081029398L146.08414941540104,152.61892513577186L165.05673299654154,136.95052723784102L169.03992733955965,144.22123807202297L167.01338986677,156.9813667681865L161.33559091293137,156.92683621911783L157.9638518418942,166.6332853996846L150.10228405965609,173.81316430990773L140.5286415159644,170.01418883540828L140.9653952816443,175.55814944283156L130.53571535719675,182.2472660200001L134.36167834454682,185.50094353085478L131.19958108101855,205.0230630458318L115.82584852908622,203.60525233803128L124.75309549956,197.5159427219769L114.4806469308096,195.58917798984112L120.05362498087925,182.21091209597398L113.10050503126695,188.77280062445607L111.80771388483117,202.15108802152645L105.13411634523072,205.56837498778077L99.40390693952213,197.78859818207093L85.96936110721435,201.64213063320312L65.65157592776814,188.64556168849958L58.698455978155835,187.0459868317448L57.72012754302705,177.72120496445314L65.84374758467311,167.43306875585222L66.52508345912793,155.00009061748642L70.6829793083889,151.34654720159415M76.29089765972458,175.59450330770414L67.67811340049957,174.9946645789314L71.69624804478372,181.64742631482295L76.29089765972458,175.59450330770414M92.13632427863195,188.62738469799297L87.4543239104969,192.68085558860184L101.58767576792161,195.77094820871025L92.99236165932962,185.77359818855803L92.13632427863195,188.62738469799297M168.8652258332877,129.20723437168454L166.96097941490007,136.69605259215496L159.5885758502409,133.31517665449064L168.8652258332877,129.20723437168454M66.57749391102698,138.24107746985646L67.24135963484878,137.8411886221893L70.00164343396318,134.35125124251135L71.15467337536393,133.60600458259069L76.78006187730352,133.15158595397406L75.81920359280775,137.64124421293855L65.26723261398729,144.94830986457964L58.261702212446835,153.36417525222168L47.1856267148396,159.507949672241L43.69159658937133,156.8723056707313L43.35966372748953,146.69328269302787L30.588983618974453,147.60212300209605L28.492565543710953,144.4938899791141L38.86983501628856,134.9147305142942L63.9569713169476,121.13677566445403L82.96449519932503,117.2833189933699L86.87780893981108,127.55315257830807L74.85834530831198,130.42507523908353L66.57749391102698,138.24107746985646" fill="none" stroke="white" stroke-width="1.2px" line-join="round"></path></g><g transform="translate(201.66666666666666,0)"><path class="ice 1992" d="M71.9058898523217,163.39779978172191L72.09806150919758,163.3432691472044L72.36011376863462,163.16150037059379L72.36011376863462,163.12514661619025L69.94923298206413,163.83404488439737L67.34618053858867,165.1973111299012L68.98837469756836,161.47105113463294L67.01424767670687,154.4002549076522L67.60823279802571,154.0730718302966L68.41185972688254,154.25484020339172L68.2546283712145,154.0730718302966L68.3769194256165,153.92765713762492L68.5865612331545,153.49141309053266L68.63897168502444,153.40052891989944L68.65644183562836,153.36417525222168L68.97090454693534,153.21876058472117L69.0407851494383,153.09152275486667L69.4775389151182,152.9824617610193L69.52994936698815,152.9824617610193L69.5823598188872,152.76433978198656L69.40765831261524,152.70980928909194L70.0191135845962,152.382626346689L70.6829793083889,151.34654720159415L71.53901668914477,150.7285352047329L81.96869661359233,157.52667229899998L81.47953239601338,160.03507867619737L81.21748013660545,160.25320104248203L80.78072637092555,160.58038461374053L80.23915170147666,161.3801667868629L75.74932299030479,163.87039864503276L72.36011376863462,163.83404488439737L72.2378227142326,163.67045296542165L71.9058898523217,163.39779978172191M71.97577045482467,161.61646609520358L72.08059135856456,161.43469739529246L71.60889729164774,161.43469739529246L71.59142714101472,161.9436497754523L71.97577045482467,161.61646609520358M71.59142714101472,161.9436497754523L71.53901668914477,161.9072960319154L71.55648683974869,162.03453413567695L71.59142714101472,161.9436497754523M73.07638994435547,161.9436497754523L73.23362129996531,161.67099670678726L73.30350190246827,161.5255817442212L73.4432631075033,161.3801667868629L72.5697555761435,160.92574507843165L72.62216602804256,161.25292870346675L73.07638994435547,161.9436497754523M71.80106894855271,159.36253478658L71.9058898523217,159.507949672241L72.04565105732763,159.68971828667054L71.80106894855271,159.36253478658M70.63056885651895,159.68971828667054L70.71791960968403,159.8351331839658L70.50827780214604,159.507949672241L70.63056885651895,159.68971828667054M70.56068825401599,155.23638955759816L70.17634494023514,154.43660858454678L70.82274051342392,155.50904219772383L70.56068825401599,155.23638955759816M69.8094717770291,162.7979628415451L70.17634494023514,163.12514661619025L70.15887478957302,162.94337784926756L69.8094717770291,162.7979628415451M69.28536725824233,163.0160853550733L68.7088522875274,163.57956856888813L69.0407851494383,163.815868004207L69.46006876448519,163.54321481081752L69.28536725824233,163.0160853550733M113.3800274412788,147.02046518107454L130.09896159151685,154.3457243929679L131.61886469606543,158.79905215330473L142.11842522304505,155.00009061748642L153.8583664445032,161.9436497754523L148.94925411825534,170.85032667520863L138.93885780888377,167.06953084730412L132.33514087181538,173.68592583974714L127.89772261248436,169.88695048345653L118.07949796001776,182.77439795479222L110.54986303969054,188.82733159824602L107.10824336612131,186.5370313268868L123.93199842009926,162.21630286228537L119.93133392647724,158.70816786491923L114.30594542453764,162.56166346500686L107.03836276361835,180.42957021463008L102.2340713411395,180.4841010770342L92.45078698990983,187.609473357561L84.71151026207372,183.4832996295081L87.80372692304081,173.90404893387858L75.41739012839389,174.66747985486109L76.18607675598469,168.85086690775825L87.82119707370293,164.90648095944016L93.27188406937057,158.6172835784837L102.74070570932236,153.6004740979388L92.34596608614083,168.70545169007892L105.8853328222176,155.47268851132867L106.06003432848956,147.67483023552268L113.3800274412788,147.02046518107454M88.52000309876166,142.83980202137718L93.49899602754158,145.98438739189987L80.0644501952047,153.54594359385737L73.0065093418234,150.12870012041094L78.80659935006406,144.29394524545387L88.52000309876166,142.83980202137718M70.59562855528202,120.13705778460826L61.72079203661997,130.0433638835657L71.69624804478372,124.22681428631768L66.35038195285597,132.11551166891877L54.121276513818884,142.34902879967376L45.82295496590086,144.25759165856834L53.125477928086184,130.2251311912587L70.59562855528202,120.13705778460826M107.70222848744015,116.48354542024936L114.0438931651297,122.62726459178157L110.14804957524757,125.9172481634887L94.30262295639841,121.5003094993026L107.70222848744015,116.48354542024936M62.157545802299865,112.55738650093554L62.873821978020715,112.59373980704368L64.3937250826275,112.83003630466919L64.98771020394634,112.97544954072873L56.794209559768206,119.5735805413733L57.94723950116895,114.04787231560658L60.51535164337838,113.4480425934853L62.157545802299865,112.55738650093554M55.9032318777754,99.68833633039503L51.34352256410057,98.52503434454957L62.73406077301479,94.28989083008128L55.9032318777754,99.68833633039503M158.1734936494322,75.98612324188798L165.16155390028143,82.38425321384966L159.6060460008448,88.90962895797747L158.87229967452004,96.96184781889133L164.6723896827316,104.99590581500706L149.36853773330222,95.88942949937882L151.9890603273816,81.20277960204294L158.1734936494322,75.98612324188798M45.82295496590086,69.95153248102906L59.04785899067065,75.24088715797552L44.72233547639917,76.27694711609547L39.096946974430466,71.82370879035807L45.82295496590086,69.95153248102906M61.44126962663722,38.28825204631903L76.22101705725072,41.105583467948236L87.97842842934188,40.85111474455152L112.62881096429192,54.37433146364128L119.38975925702835,67.31594591287103L122.95366998497047,63.84424479591871L128.12483457065537,73.51412113956576L115.07463205212844,72.0236499998282L113.55472894757986,79.98495331047343L99.28161588514922,79.80318822317167L84.3621072495007,83.49302106543837L70.94503156782594,80.49389559749761L59.10026944254059,89.32768959477471L51.01158970218967,88.32797944693993L43.30725327559048,78.62171535127891L53.17788837995613,78.38542081753985L63.57262800313765,82.05707587206962L68.79620304066339,78.05824379315163L54.872492990776664,66.9887697666909L71.48660623727483,65.71641833383364L82.52774143364513,57.7551425595866L66.24556104911608,44.41367829713272L51.273641961597605,41.28734685138079L61.44126962663722,38.28825204631903M74.31677063886309,132.76987434484L76.57042006976553,133.1879394424086L76.78006187730352,133.15158595397406L78.21261422871612,135.24191206240903L78.75418889819412,136.04168928999934L78.09032317434321,136.60516879394345L73.51314371003537,137.93207244775658L72.79686753431452,139.14991590512545L66.07085954281501,142.94886274527016L66.57749391102698,138.24107746985646L67.24135963484878,137.8411886221893L68.02751641307259,136.8051131526663L68.46427017875249,136.2961638950892L71.15467337536393,133.60600458259069L74.31677063886309,132.76987434484" fill="none" stroke="white" stroke-width="1.2px" line-join="round"></path></g><g transform="translate(403.3333333333333,0)"><path class="ice 2011" d="M90.42424951712019,166.30610134454582L89.13145837074262,171.32292639943807L75.92402449654764,173.30421045306866L75.4348602789978,170.4867884629566L90.42424951712019,166.30610134454582M91.76945111542591,173.43144891135307L89.84773454643437,172.59531054377658L109.22213159198873,156.65418348458115L113.86919165885774,160.30773163589765L108.34862406065804,170.90485740987242L99.24667558385408,181.320241058198L93.00983180996263,184.17402445652078L87.31456270549097,180.42957021463008L91.76945111542591,173.43144891135307M108.47091511503095,148.6200243875628L116.54212470480707,153.8731266291743L110.63721379279741,155.7453411672068L108.47091511503095,148.6200243875628M76.57042006976553,133.1879394424086L76.78006187730352,133.15158595397406L78.21261422871612,135.24191206240903L78.75418889819412,136.04168928999934L78.09032317434321,136.60516879394345L73.51314371003537,137.93207244775658L72.79686753431452,139.14991590512545L68.02751641307259,136.8051131526663L68.46427017875249,136.2961638950892L70.00164343396318,134.35125124251135L74.31677063886309,132.76987434484L76.57042006976553,133.1879394424086M154.24270975831314,87.49185841870167L156.46141888797865,95.65313397499449L150.29445571656106,94.94424748328674L154.24270975831314,87.49185841870167M61.755732337915106,84.29278822554625L54.29597802006174,89.41857234753297L48.548298463749234,88.85509931280467L61.755732337915106,84.29278822554625M160.35726247783168,80.74836676455743L162.12174769115518,85.00167288363991L154.57464262022404,86.31038334209188L153.63125448636129,82.03889935382176L160.35726247783168,80.74836676455743M46.521760990988696,79.51236410023193L54.06886606194894,81.7662515900247L53.789343651907984,87.346446083302L46.521760990988696,79.51236410023193M67.2762999360857,70.49682646400106L75.57462148403283,69.69706198034692L77.11199473924353,62.49918860367325L85.6898386971734,62.71730579424002L95.14119018649217,67.6067691756889L101.91960862986161,67.17053428915824L98.42557850439334,60.04537100369271L89.90014499833342,59.24560854551237L84.53680875577265,53.06563113725315L75.13786771832383,49.06682715305578L72.63963617867557,44.57726547275888L89.95255545023247,44.0137985617348L96.38157088099979,49.66664750391283L112.3842288555461,56.428264756516L111.24866906477837,79.33059903380854L101.3605638097506,78.67624486095701L85.56754764277139,82.38425321384966L71.06732262219884,77.87647879087308L67.2762999360857,70.49682646400106M118.41143082192866,153.30964475127075L130.5881258090667,160.30773163589765L142.11842522304505,156.0361706868007L148.61732125634444,159.7806025968348L146.9227166455239,168.3237367682741L138.17017118129297,163.59774544801076L129.0507525538851,169.63247379140557L123.11090134063852,170.10507337489435L113.2752065375389,186.0644298435127L112.55893036178895,179.1571836319672L125.11996866276604,162.1799491163256L118.41143082192866,153.30964475127075M82.47533098174608,144.53024356811147L90.42424951712019,145.56632098968475L79.45299492325285,151.71008371385324L73.56555416190531,149.6924564779165L82.47533098174608,144.53024356811147M71.9058898523217,163.39779978172191L72.09806150919758,163.3432691472044L72.36011376863462,163.16150037059379L72.36011376863462,163.12514661619025L73.07638994435547,161.9436497754523L73.23362129996531,161.67099670678726L73.30350190246827,161.5255817442212L73.4432631075033,161.3801667868629L72.5697555761435,160.92574507843165L72.62216602804256,161.25292870346675L71.97577045482467,161.61646609520358L72.08059135856456,161.43469739529246L71.60889729164774,161.43469739529246L71.59142714101472,161.9436497754523L71.53901668914477,161.9072960319154L71.55648683974869,162.03453413567695L69.94923298206413,163.83404488439737L67.34618053858867,165.1973111299012L72.51734512424446,156.09070122402954L70.82274051342392,155.50904219772383L70.56068825401599,155.23638955759816L70.17634494023514,154.43660858454678L67.01424767670687,154.4002549076522L67.60823279802571,154.0730718302966L68.41185972688254,154.25484020339172L68.2546283712145,154.0730718302966L68.3769194256165,153.92765713762492L68.5865612331545,153.49141309053266L68.63897168502444,153.40052891989944L68.65644183562836,153.36417525222168L68.97090454693534,153.21876058472117L69.0407851494383,153.09152275486667L69.4775389151182,152.9824617610193L69.52994936698815,152.9824617610193L69.5823598188872,152.76433978198656L69.40765831261524,152.70980928909194L70.0191135845962,152.382626346689L71.53901668914477,150.7285352047329L81.96869661359233,157.52667229899998L81.47953239601338,160.03507867619737L81.21748013660545,160.25320104248203L80.78072637092555,160.58038461374053L80.23915170147666,161.3801667868629L75.74932299030479,163.87039864503276L72.36011376863462,163.83404488439737L72.2378227142326,163.67045296542165L71.9058898523217,163.39779978172191M70.10646433770307,159.18076618674058L70.50827780214604,159.507949672241L70.63056885651895,159.68971828667054L70.71791960968403,159.8351331839658L70.0191135845962,159.12623560834254L70.10646433770307,159.18076618674058M71.80106894855271,159.36253478658L71.9058898523217,159.507949672241L71.71371819541673,159.30800420575906L71.80106894855271,159.36253478658M73.51314371003537,158.05380104782307L73.5480840112723,158.1083316119093L73.60049446317134,158.3809844432708L73.51314371003537,158.05380104782307M69.28536725824233,163.0160853550733L68.7088522875274,163.57956856888813L68.16727761807851,163.77951424405L68.42932987748645,164.2521131514386L69.0407851494383,163.815868004207L69.46006876448519,163.54321481081752L70.17634494023514,163.12514661619025L70.15887478957302,162.94337784926756L69.8094717770291,162.7979628415451L69.28536725824233,163.0160853550733" fill="none" stroke="white" stroke-width="1.2px" line-join="round"></path></g></svg>
